<svg width="56" height="48" viewBox="0 0 56 48" fill="none" xmlns="http://www.w3.org/2000/svg">
<path d="M0 0H52C54.2091 0 56 1.79086 56 4V44C56 46.2091 54.2091 48 52 48H0V0Z" fill="#F4C93F"/>
<path d="M36.6 33L30.3 26.7C29.8 27.1 29.225 27.4167 28.575 27.65C27.925 27.8833 27.2333 28 26.5 28C24.6833 28 23.1458 27.3708 21.8875 26.1125C20.6292 24.8542 20 23.3167 20 21.5C20 19.6833 20.6292 18.1458 21.8875 16.8875C23.1458 15.6292 24.6833 15 26.5 15C28.3167 15 29.8542 15.6292 31.1125 16.8875C32.3708 18.1458 33 19.6833 33 21.5C33 22.2333 32.8833 22.925 32.65 23.575C32.4167 24.225 32.1 24.8 31.7 25.3L38 31.6L36.6 33ZM26.5 26C27.75 26 28.8125 25.5625 29.6875 24.6875C30.5625 23.8125 31 22.75 31 21.5C31 20.25 30.5625 19.1875 29.6875 18.3125C28.8125 17.4375 27.75 17 26.5 17C25.25 17 24.1875 17.4375 23.3125 18.3125C22.4375 19.1875 22 20.25 22 21.5C22 22.75 22.4375 23.8125 23.3125 24.6875C24.1875 25.5625 25.25 26 26.5 26Z" fill="#222222"/>
</svg>
