<svg width="20" height="20" viewBox="0 0 20 20" fill="none" xmlns="http://www.w3.org/2000/svg">
<g clip-path="url(#clip0_2_252)">
<path d="M9.99996 1.66667C5.39996 1.66667 1.66663 5.4 1.66663 10C1.66663 14.6 5.39996 18.3333 9.99996 18.3333C14.6 18.3333 18.3333 14.6 18.3333 10C18.3333 5.4 14.6 1.66667 9.99996 1.66667ZM9.99996 4.16667C11.3833 4.16667 12.5 5.28333 12.5 6.66667C12.5 8.05 11.3833 9.16667 9.99996 9.16667C8.61663 9.16667 7.49996 8.05 7.49996 6.66667C7.49996 5.28333 8.61663 4.16667 9.99996 4.16667ZM9.99996 16C7.91663 16 6.07496 14.9333 4.99996 13.3167C5.02496 11.6583 8.33329 10.75 9.99996 10.75C11.6583 10.75 14.975 11.6583 15 13.3167C13.925 14.9333 12.0833 16 9.99996 16Z" fill="white"/>
</g>
<defs>
<clipPath id="clip0_2_252">
<rect width="20" height="20" fill="white"/>
</clipPath>
</defs>
</svg>
